<?xml version="1.0" encoding="iso-8859-1"?>
<!-- Generator: Adobe Illustrator 19.0.0, SVG Export Plug-In . SVG Version: 6.00 Build 0)  -->
<svg version="1.1" id="Layer_1" xmlns="http://www.w3.org/2000/svg" xmlns:xlink="http://www.w3.org/1999/xlink" x="0px" y="0px"
	 viewBox="0 0 512 512" style="enable-background:new 0 0 512 512;" xml:space="preserve">
<g>
	<g>
		<path style="fill:#21303D;" d="M167.724,291.31H79.448v-77.065c0-6.197,5.014-11.211,11.211-11.211h65.854
			c6.197,0,11.211,5.014,11.211,11.211V291.31z"/>
		<path style="fill:#21303D;" d="M300.138,291.31h-88.276v-77.065c0-6.197,5.014-11.211,11.211-11.211h65.854
			c6.197,0,11.211,5.014,11.211,11.211V291.31z"/>
		<path style="fill:#21303D;" d="M432.552,291.31h-88.276v-77.065c0-6.197,5.014-11.211,11.211-11.211h65.854
			c6.197,0,11.211,5.014,11.211,11.211V291.31z"/>
		<path style="fill:#21303D;" d="M167.724,459.034H79.448V381.97c0-6.197,5.014-11.211,11.211-11.211h65.854
			c6.197,0,11.211,5.014,11.211,11.211V459.034z"/>
		<path style="fill:#21303D;" d="M300.138,459.034h-88.276V381.97c0-6.197,5.014-11.211,11.211-11.211h65.854
			c6.197,0,11.211,5.014,11.211,11.211V459.034z"/>
		<path style="fill:#21303D;" d="M432.552,459.034h-88.276V381.97c0-6.197,5.014-11.211,11.211-11.211h65.854
			c6.197,0,11.211,5.014,11.211,11.211V459.034z"/>
		<path style="fill:#21303D;" d="M167.724,123.586H79.448V46.521c0-6.197,5.014-11.211,11.211-11.211h65.854
			c6.197,0,11.211,5.014,11.211,11.211V123.586z"/>
		<path style="fill:#21303D;" d="M300.138,123.586h-88.276V46.521c0-6.197,5.014-11.211,11.211-11.211h65.854
			c6.197,0,11.211,5.014,11.211,11.211V123.586z"/>
		<path style="fill:#21303D;" d="M432.552,123.586h-88.276V46.521c0-6.197,5.014-11.211,11.211-11.211h65.854
			c6.197,0,11.211,5.014,11.211,11.211V123.586z"/>
	</g>
	<g>
		<polygon style="fill:#556080;" points="35.309,132.414 476.689,132.414 476.689,114.759 35.309,114.759 		"/>
		<polygon style="fill:#556080;" points="35.309,300.138 476.689,300.138 476.689,282.483 35.309,282.483 		"/>
		<polygon style="fill:#556080;" points="35.309,467.862 476.689,467.862 476.689,450.207 35.309,450.207 		"/>
	</g>
	<g>
		<path style="fill:#3C4660;" d="M35.31,512H0V17.655C0,7.901,7.901,0,17.655,0S35.31,7.901,35.31,17.655V512z"/>
		<path style="fill:#3C4660;" d="M512,512h-35.31V17.655C476.69,7.901,484.59,0,494.345,0S512,7.901,512,17.655V512z"/>
	</g>
</g>
<g>
</g>
<g>
</g>
<g>
</g>
<g>
</g>
<g>
</g>
<g>
</g>
<g>
</g>
<g>
</g>
<g>
</g>
<g>
</g>
<g>
</g>
<g>
</g>
<g>
</g>
<g>
</g>
<g>
</g>
</svg>
